<svg viewBox="0 0 100 100" fill="none" xmlns="http://www.w3.org/2000/svg">
  <defs>
    <linearGradient id="favGrad" x1="0%" y1="0%" x2="100%" y2="100%">
      <stop offset="0%" stopColor="#8B5CF6" />
      <stop offset="50%" stopColor="#D946EF" />
      <stop offset="100%" stopColor="#06B6D4" />
    </linearGradient>
  </defs>

  <!-- Hexagonal circuit paths -->
  <g stroke="url(#favGrad)" stroke-width="4.5" stroke-linecap="round" stroke-linejoin="round">
    <path d="M 46,12 C 24,14 18,34 24,54 C 28,68 40,76 50,88" stroke-width="5" />
    <path d="M 54,12 C 76,14 82,34 76,54 C 72,68 60,76 50,88" stroke-width="5" />
    <path d="M 50,88 C 43,78 30,70 30,50 C 30,32 44,24 50,12" stroke-width="3" opacity="0.85" />
    <path d="M 50,22 L 50,72" stroke-width="2.5" />
    
    <!-- Tracks -->
    <path d="M 50,35 L 41,35 L 37,41 L 32,41" stroke-width="2" />
    <path d="M 50,45 L 59,45 L 63,51 L 68,51" stroke-width="2" />
    <path d="M 50,57 L 41,57 L 37,63 L 32,63" stroke-width="2" />
    <path d="M 50,65 L 59,65 L 63,71 L 68,71" stroke-width="2" />

    <!-- Connected nodes -->
    <path d="M 30,30 L 34,42 L 26,50" stroke-width="1.5" opacity="0.7" />
    <path d="M 70,30 L 66,42 L 74,50" stroke-width="1.5" opacity="0.7" />
    <path d="M 26,50 L 32,60 L 40,68" stroke-width="1.5" opacity="0.7" />
    <path d="M 74,50 L 68,60 L 60,68" stroke-width="1.5" opacity="0.7" />
  </g>

  <!-- Connected nodes (circles) -->
  <g fill="url(#favGrad)">
    <circle cx="50" cy="22" r="4.5" />
    <circle cx="50" cy="72" r="4.5" />
    <circle cx="46" cy="12" r="3" />
    <circle cx="54" cy="12" r="3" />
    <circle cx="50" cy="88" r="3" />
    <circle cx="30" cy="30" r="3.5" />
    <circle cx="34" cy="42" r="3.5" />
    <circle cx="26" cy="50" r="3.5" />
    <circle cx="32" cy="60" r="3.5" />
    <circle cx="40" cy="68" r="3.5" />
    <circle cx="70" cy="30" r="3.5" />
    <circle cx="66" cy="42" r="3.5" />
    <circle cx="74" cy="50" r="3.5" />
    <circle cx="68" cy="60" r="3.5" />
    <circle cx="60" cy="68" r="3.5" />
  </g>
</svg>
